<svg xmlns="http://www.w3.org/2000/svg" id="Ebene_1" data-name="Ebene 1" viewBox="0 0 216.22 78"><defs><style>.cls-1{fill:red}</style></defs><title>MLL_Logo</title><circle cx="13.43" cy="13.44" r="13.43" class="cls-1"/><circle cx="65.43" cy="13.43" r="13.43" class="cls-1"/><circle cx="178.09" cy="13.43" r="12.57" class="cls-1"/><circle cx="108.76" cy="13.43" r="10.83" class="cls-1"/><circle cx="13.43" cy="39.39" r="9.97" class="cls-1"/><circle cx="65.43" cy="39.39" r="10.83" class="cls-1"/><circle cx="178.09" cy="39.39" r="10.83" class="cls-1"/><circle cx="108.75" cy="39.39" r="12.57" class="cls-1"/><circle cx="39.43" cy="26.48" r="13.43" class="cls-1"/><circle cx="13.43" cy="65.43" r="11.27" class="cls-1"/><path d="M757.86,464a12.57,12.57,0,1,0,12.57,12.54A12.55,12.55,0,0,0,757.86,464Z" class="cls-1" transform="translate(-692.43 -411.18)"/><circle cx="204.08" cy="65.43" r="12.13" class="cls-1"/><circle cx="134.76" cy="65.43" r="12.57" class="cls-1"/><circle cx="178.09" cy="65.43" r="11.27" class="cls-1"/><circle cx="108.76" cy="65.43" r="10.83" class="cls-1"/></svg>